<svg xmlns="http://www.w3.org/2000/svg" xmlns:xlink="http://www.w3.org/1999/xlink" width="1200" zoomAndPan="magnify" viewBox="0 0 900 225" height="300" preserveAspectRatio="xMidYMid meet" version="1.0"><defs><g/><clipPath id="07ea1f942a"><path d="M 118 19 L 240.75 19 L 240.75 205.703125 L 118 205.703125 Z M 118 19 " clip-rule="nonzero"/></clipPath><clipPath id="d3fa6d7eb0"><path d="M 0 20 L 117 20 L 117 205.703125 L 0 205.703125 Z M 0 20 " clip-rule="nonzero"/></clipPath><clipPath id="201befe57f"><path d="M 115 18.953125 L 121 18.953125 L 121 33 L 115 33 Z M 115 18.953125 " clip-rule="nonzero"/></clipPath></defs><g fill="#000000" fill-opacity="1"><g transform="translate(257.90618, 163.417053)"><g><path d="M 18.453125 -125.421875 L 82.953125 -125.421875 L 82.046875 -121.484375 L 63.0625 -121.484375 L 35.828125 -3.9375 L 42.28125 -3.9375 C 52.425781 -3.9375 61.234375 -7.039062 68.703125 -13.25 C 76.171875 -19.46875 84.503906 -29.023438 93.703125 -41.921875 L 97.46875 -41.921875 L 84.375 0 L -10.578125 0 L -9.6875 -3.9375 L 0.890625 -3.9375 L 28.125 -121.484375 L 17.546875 -121.484375 Z M 18.453125 -125.421875 "/></g></g></g><g fill="#000000" fill-opacity="1"><g transform="translate(364.683261, 163.417053)"><g><path d="M 38.875 1.796875 C 23.46875 1.796875 12.804688 -2.171875 6.890625 -10.109375 C 0.972656 -18.054688 -0.34375 -29.109375 2.9375 -43.265625 C 6.226562 -57.421875 13.066406 -68.257812 23.453125 -75.78125 C 33.847656 -83.3125 45.738281 -87.078125 59.125 -87.078125 C 86.238281 -87.078125 96.148438 -73.457031 88.859375 -46.21875 L 38.328125 -46.21875 L 36.71875 -39.234375 C 33.976562 -27.535156 33.410156 -18.695312 35.015625 -12.71875 C 36.628906 -6.75 41.140625 -3.765625 48.546875 -3.765625 C 62.398438 -3.765625 73.210938 -11.171875 80.984375 -25.984375 L 84.03125 -25.4375 C 79.726562 -16.84375 74.082031 -10.15625 67.09375 -5.375 C 60.101562 -0.59375 50.695312 1.796875 38.875 1.796875 Z M 39.234375 -49.8125 L 57.6875 -49.8125 L 59.84375 -58.59375 C 61.988281 -68.269531 62.910156 -74.867188 62.609375 -78.390625 C 62.316406 -81.910156 60.46875 -83.671875 57.0625 -83.671875 C 53.65625 -83.671875 50.695312 -81.789062 48.1875 -78.03125 C 45.675781 -74.269531 43.40625 -67.789062 41.375 -58.59375 Z M 39.234375 -49.8125 "/></g></g></g><g fill="#000000" fill-opacity="1"><g transform="translate(457.127852, 163.417053)"><g><path d="M 88.140625 -94.609375 L 93.875 -97.65625 C 95.425781 -101.351562 94.410156 -103.203125 90.828125 -103.203125 C 85.691406 -103.203125 82.171875 -99.257812 80.265625 -91.375 C 79.546875 -88.269531 79.1875 -84.6875 79.1875 -80.625 C 86.832031 -74.53125 89.550781 -66.734375 87.34375 -57.234375 C 85.132812 -47.742188 80.144531 -40.367188 72.375 -35.109375 C 64.613281 -29.859375 55.117188 -27.234375 43.890625 -27.234375 C 39.234375 -27.234375 34.515625 -27.710938 29.734375 -28.671875 C 23.640625 -25.328125 20.410156 -22.816406 20.046875 -21.140625 C 19.691406 -19.472656 23.335938 -18.640625 30.984375 -18.640625 L 49.265625 -18.640625 C 76.378906 -18.640625 87.664062 -8.898438 83.125 10.578125 C 80.738281 21.085938 74.738281 29.414062 65.125 35.5625 C 55.507812 41.71875 42.039062 44.796875 24.71875 44.796875 C -4.78125 44.796875 -18.039062 38.40625 -15.0625 25.625 C -13.507812 18.695312 -7.832031 13.914062 1.96875 11.28125 L 11.640625 16.125 C 9.847656 19.59375 8.59375 22.878906 7.875 25.984375 C 5.488281 36.253906 11.941406 41.390625 27.234375 41.390625 C 36.546875 41.390625 44.128906 39.65625 49.984375 36.1875 C 55.835938 32.726562 59.359375 28.429688 60.546875 23.296875 C 61.742188 18.160156 61 14.722656 58.3125 12.984375 C 55.625 11.253906 49.742188 10.390625 40.671875 10.390625 L 23.28125 10.390625 C 13.601562 10.390625 7.0625 8.773438 3.65625 5.546875 C 0.257812 2.328125 -0.898438 -1.640625 0.171875 -6.359375 C 1.242188 -11.078125 3.628906 -15.019531 7.328125 -18.1875 C 11.035156 -21.351562 17.25 -25.265625 25.96875 -29.921875 C 13.070312 -33.859375 8.234375 -42.9375 11.453125 -57.15625 C 13.609375 -66.113281 18.535156 -73.335938 26.234375 -78.828125 C 33.941406 -84.328125 44.25 -87.078125 57.15625 -87.078125 C 64.914062 -87.078125 71.1875 -85.582031 75.96875 -82.59375 C 75.96875 -85.820312 76.265625 -88.75 76.859375 -91.375 C 78.410156 -98.0625 81.335938 -102.898438 85.640625 -105.890625 C 89.941406 -108.878906 94.300781 -110.375 98.71875 -110.375 C 103.132812 -110.375 106.414062 -109.207031 108.5625 -106.875 C 110.71875 -104.539062 111.316406 -101.34375 110.359375 -97.28125 C 109.398438 -93.226562 107.632812 -90.210938 105.0625 -88.234375 C 102.5 -86.265625 99.695312 -85.28125 96.65625 -85.28125 C 93.613281 -85.28125 91.285156 -86.085938 89.671875 -87.703125 C 88.054688 -89.316406 87.546875 -91.617188 88.140625 -94.609375 Z M 42.28125 -61.09375 L 40.125 -51.421875 C 38.332031 -43.421875 37.765625 -37.984375 38.421875 -35.109375 C 39.078125 -32.242188 40.804688 -30.8125 43.609375 -30.8125 C 46.421875 -30.8125 48.78125 -32.210938 50.6875 -35.015625 C 52.601562 -37.828125 54.578125 -43.59375 56.609375 -52.3125 L 58.578125 -61.09375 C 60.734375 -70.414062 61.570312 -76.539062 61.09375 -79.46875 C 60.613281 -82.394531 58.96875 -83.859375 56.15625 -83.859375 C 53.351562 -83.859375 50.875 -82.332031 48.71875 -79.28125 C 46.570312 -76.238281 44.425781 -70.175781 42.28125 -61.09375 Z M 42.28125 -61.09375 "/></g></g></g><g fill="#000000" fill-opacity="1"><g transform="translate(546.168192, 163.417053)"><g><path d="M 44.78125 -42.109375 L 49.984375 -42.109375 L 53.203125 -55.90625 C 55.835938 -67.25 56.972656 -74.859375 56.609375 -78.734375 C 56.253906 -82.617188 54.285156 -84.5625 50.703125 -84.5625 C 48.546875 -84.5625 46.484375 -83.992188 44.515625 -82.859375 C 42.546875 -81.734375 41.320312 -80.179688 40.84375 -78.203125 C 40.363281 -76.234375 40.242188 -74.234375 40.484375 -72.203125 L 44.96875 -72.203125 C 45.320312 -69.691406 45.109375 -66.675781 44.328125 -63.15625 C 43.554688 -59.632812 41.378906 -56.585938 37.796875 -54.015625 C 34.210938 -51.453125 30.148438 -50.171875 25.609375 -50.171875 C 15.335938 -50.171875 11.335938 -55.128906 13.609375 -65.046875 C 16.953125 -79.734375 31.109375 -87.078125 56.078125 -87.078125 C 70.285156 -87.078125 79.566406 -84.65625 83.921875 -79.8125 C 88.285156 -74.976562 88.976562 -66.113281 86 -53.21875 L 77.578125 -16.84375 C 76.140625 -10.632812 77.15625 -7.53125 80.625 -7.53125 C 84.6875 -7.53125 88.507812 -13.679688 92.09375 -25.984375 L 94.59375 -25.796875 C 91.726562 -15.285156 88.113281 -8.054688 83.75 -4.109375 C 79.394531 -0.171875 73.273438 1.796875 65.390625 1.796875 C 51.054688 1.796875 43.828125 -2.625 43.703125 -11.46875 C 41.078125 -6.925781 37.972656 -3.578125 34.390625 -1.421875 C 30.804688 0.722656 26.03125 1.796875 20.0625 1.796875 C 2.382812 1.796875 -4.78125 -5.429688 -1.4375 -19.890625 C 0.46875 -28.367188 5.15625 -34.191406 12.625 -37.359375 C 20.09375 -40.523438 30.8125 -42.109375 44.78125 -42.109375 Z M 32.609375 -20.0625 C 31.171875 -13.851562 30.570312 -9.851562 30.8125 -8.0625 C 31.050781 -6.269531 32.09375 -5.375 33.9375 -5.375 C 35.789062 -5.375 37.878906 -6.894531 40.203125 -9.9375 C 42.535156 -12.988281 44.300781 -17.203125 45.5 -22.578125 L 49.4375 -39.234375 L 48.1875 -39.234375 C 40.78125 -39.234375 35.820312 -33.800781 33.3125 -22.9375 Z M 32.609375 -20.0625 "/></g></g></g><g fill="#000000" fill-opacity="1"><g transform="translate(644.524939, 163.417053)"><g><path d="M 16.828125 -134.375 L 60.734375 -134.375 L 30.453125 -3.21875 L 40.484375 -3.21875 L 39.59375 0 L -13.625 0 L -12.734375 -3.21875 L -2.875 -3.21875 L 26.515625 -131.15625 L 15.9375 -131.15625 Z M 16.828125 -134.375 "/></g></g></g><g clip-path="url(#07ea1f942a)"><path fill="#000000" d="M 202.660156 50.496094 C 197.339844 44.472656 191.660156 38.960938 184.652344 34.878906 C 179.691406 31.96875 175.597656 28.140625 172.121094 23.597656 C 171.503906 22.78125 171.300781 21.605469 170.941406 20.636719 C 172.015625 20.6875 173.144531 20.535156 174.0625 20.839844 C 181.53125 23.445312 186.851562 28.804688 191.761719 34.722656 C 192.429688 35.539062 193.09375 36.355469 193.808594 37.121094 C 194.066406 37.429688 194.421875 37.632812 194.933594 37.785156 C 192.480469 31.816406 187.3125 26.863281 187.671875 19.207031 C 188.796875 19.820312 189.460938 20.023438 189.972656 20.433594 C 195.855469 25.28125 199.691406 31.40625 200.871094 38.960938 C 201.074219 40.183594 200.511719 41.460938 200.203125 43.402344 C 203.222656 47.125 206.703125 51.464844 210.230469 55.753906 C 208.082031 48.148438 205.523438 40.644531 207.621094 32.019531 C 208.542969 32.835938 209.308594 33.296875 209.769531 33.90625 C 215.398438 41.460938 217.085938 49.933594 214.527344 58.867188 C 213.660156 61.824219 214.171875 63.867188 215.246094 66.265625 C 216.265625 68.511719 217.136719 70.808594 218.671875 73.105469 C 219.386719 70.347656 220.15625 67.59375 220.71875 64.785156 C 221.640625 60.550781 222.355469 56.210938 223.328125 51.976562 C 223.53125 51.109375 224.351562 50.34375 224.863281 49.523438 C 225.476562 50.289062 226.34375 50.953125 226.703125 51.769531 C 230.335938 60.292969 227.675781 70.554688 220.460938 76.523438 C 219.949219 76.933594 219.542969 77.851562 219.644531 78.464844 C 220.359375 83.3125 221.230469 88.109375 222.046875 92.90625 C 224.351562 88.316406 226.652344 83.566406 229.054688 78.871094 C 230.285156 76.523438 231.5625 74.175781 232.945312 71.929688 C 233.40625 71.214844 234.324219 70.808594 235.042969 70.246094 C 235.449219 71.164062 236.167969 72.035156 236.167969 72.953125 C 236.117188 78.414062 234.683594 83.515625 231.460938 87.957031 C 229.671875 90.40625 227.472656 92.601562 225.425781 94.898438 C 225.21875 95.152344 224.964844 95.460938 224.707031 95.511719 C 221.128906 95.96875 221.742188 98.726562 221.535156 101.125 C 221.179688 104.902344 220.566406 108.628906 220.105469 112.148438 C 225.679688 106.074219 231.410156 99.847656 237.140625 93.671875 C 237.957031 92.804688 239.03125 92.195312 240.003906 91.480469 C 240.261719 91.632812 240.464844 91.785156 240.71875 91.886719 C 240.566406 93.113281 240.667969 94.386719 240.261719 95.511719 C 237.34375 104.800781 231 111.230469 222.714844 115.976562 C 222.097656 116.335938 221.382812 116.539062 220.667969 116.691406 C 220.054688 116.84375 219.386719 116.792969 218.773438 116.84375 C 216.933594 122.5625 215.039062 128.277344 213.25 133.839844 C 218.925781 129.042969 224.65625 124.144531 230.488281 119.347656 C 231.921875 118.171875 233.457031 117.101562 234.992188 116.078125 C 235.554688 115.722656 236.320312 115.824219 236.984375 115.671875 C 237.089844 116.4375 237.292969 117.203125 237.242188 117.917969 C 237.242188 118.375 236.933594 118.835938 236.730469 119.242188 C 232.945312 126.03125 227.828125 131.59375 220.871094 135.167969 C 218.46875 136.394531 215.5 136.546875 212.789062 137.210938 C 212.023438 137.414062 210.949219 137.617188 210.589844 138.179688 C 207.316406 142.925781 204.144531 147.773438 200.921875 152.570312 C 205.523438 150.429688 210.179688 148.183594 214.886719 146.039062 C 219.59375 143.894531 224.351562 141.855469 229.054688 139.761719 C 229.261719 140.015625 229.464844 140.324219 229.671875 140.578125 C 229.261719 141.445312 228.953125 142.414062 228.339844 143.179688 C 222.046875 151.195312 214.066406 156.144531 203.734375 156.859375 C 202.761719 156.910156 201.6875 157.011719 200.871094 156.605469 C 198.464844 155.378906 197.136719 156.65625 195.5 158.1875 C 192.785156 160.738281 189.820312 162.984375 186.953125 165.332031 C 185.984375 166.148438 185.011719 166.914062 184.039062 167.730469 C 184.089844 167.933594 184.191406 168.140625 184.242188 168.34375 C 185.113281 168.292969 186.035156 168.292969 186.902344 168.089844 C 194.882812 166.25 202.8125 164.414062 210.742188 162.574219 C 211.050781 162.523438 211.40625 162.371094 211.714844 162.421875 C 212.429688 162.523438 213.199219 162.679688 213.914062 162.832031 C 213.605469 163.546875 213.503906 164.414062 212.992188 164.871094 C 207.519531 169.875 201.074219 172.835938 193.65625 173.445312 C 189.460938 173.804688 185.421875 173.242188 181.632812 171.253906 C 181.175781 171.046875 180.40625 171.046875 179.945312 171.304688 C 173.65625 174.722656 167.414062 178.246094 160.558594 182.019531 C 171.453125 181.613281 181.941406 181.152344 192.480469 180.746094 C 192.632812 180.949219 192.734375 181.203125 192.890625 181.410156 C 191.816406 182.378906 190.894531 183.550781 189.71875 184.316406 C 181.738281 189.320312 173.246094 190.289062 164.394531 187.125 C 161.992188 186.257812 159.894531 184.726562 157.589844 183.550781 C 157.183594 183.347656 156.515625 183.195312 156.109375 183.347656 C 145.875 186.460938 135.339844 188.25 124.75 189.574219 C 124.03125 189.675781 123.367188 189.933594 121.933594 190.339844 C 123.574219 191.207031 124.699219 191.972656 125.875 192.382812 C 129.199219 193.554688 132.679688 194.421875 136.003906 195.75 C 140.605469 197.640625 145.160156 199.78125 149.660156 201.925781 C 150.480469 202.335938 150.992188 203.40625 151.65625 204.121094 C 150.683594 204.53125 149.714844 205.242188 148.742188 205.296875 C 141.9375 205.703125 135.851562 203.457031 130.222656 199.886719 C 126.898438 197.742188 123.675781 195.445312 120.402344 193.199219 C 119.171875 192.382812 117.996094 191.515625 118.40625 189.675781 C 118.867188 187.789062 120.296875 187.175781 121.988281 186.972656 C 125.925781 186.460938 129.863281 186.054688 133.753906 185.492188 C 135.746094 185.1875 137.640625 184.574219 138.664062 184.371094 C 139.789062 182.074219 140.351562 180.335938 141.375 179.011719 C 146.4375 172.476562 153.292969 167.933594 159.945312 163.238281 C 160.710938 162.679688 161.992188 162.78125 163.015625 162.574219 C 162.910156 163.648438 163.066406 164.871094 162.605469 165.738281 C 158.714844 172.9375 153.5 178.804688 145.925781 182.378906 C 145.363281 182.632812 144.800781 182.941406 144.238281 183.246094 C 144.1875 183.246094 144.1875 183.398438 143.832031 184.316406 C 151.402344 181.613281 158.410156 179.0625 164.703125 176.765625 C 164.703125 174.109375 164.394531 172.273438 164.753906 170.539062 C 166.492188 162.015625 170.074219 154.308594 175.496094 147.519531 C 175.957031 146.957031 176.722656 146.703125 177.335938 146.292969 C 177.542969 147.007812 177.953125 147.773438 177.898438 148.4375 C 177.234375 157.113281 174.625 165.179688 169.765625 172.476562 C 169.304688 173.191406 168.589844 173.753906 168.28125 174.875 C 172.578125 172.070312 176.929688 169.3125 181.175781 166.503906 C 181.480469 166.300781 181.53125 165.433594 181.429688 164.921875 C 179.539062 154.15625 181.019531 143.894531 185.726562 134.046875 C 185.828125 133.839844 186.085938 133.738281 186.597656 133.332031 C 189.511719 143.4375 189.769531 153.132812 184.960938 162.730469 C 188.132812 161.503906 196.164062 153.898438 197.59375 150.835938 C 194.167969 149.457031 193.964844 146.292969 193.402344 143.285156 C 192.378906 137.71875 192.632812 132.207031 194.015625 126.746094 C 194.425781 125.113281 195.292969 123.582031 196.46875 122.050781 C 200.203125 130.984375 199.742188 140.222656 198.875 149.40625 C 199.078125 149.5625 199.234375 149.664062 199.4375 149.816406 C 202.351562 145.171875 205.21875 140.527344 208.082031 135.832031 C 208.289062 135.523438 208.082031 134.761719 207.828125 134.402344 C 203.785156 128.585938 201.328125 122.203125 200.972656 115.058594 C 200.871094 113.324219 201.125 111.539062 201.382812 109.75 C 201.484375 109.085938 202.199219 108.527344 202.660156 107.964844 C 203.121094 108.476562 203.785156 108.882812 203.988281 109.445312 C 206.191406 116.078125 208.339844 122.714844 210.488281 129.402344 C 210.589844 129.757812 210.742188 130.117188 211.050781 131.035156 C 212.941406 125.828125 214.628906 121.183594 216.214844 116.792969 C 207.878906 110.109375 203.582031 101.839844 202.863281 91.582031 C 205.0625 90.96875 205.679688 92.296875 206.496094 93.367188 C 210.691406 99.03125 214.835938 104.648438 216.574219 111.691406 C 216.832031 111.640625 217.136719 111.640625 217.394531 111.589844 C 217.90625 106.839844 218.519531 102.09375 218.925781 97.347656 C 218.980469 96.890625 218.160156 96.125 217.546875 95.816406 C 209.515625 91.785156 203.632812 85.761719 199.898438 77.597656 C 199.488281 76.679688 199.539062 75.554688 199.335938 74.332031 C 204.296875 75.300781 213.609375 84.382812 218.671875 92.347656 C 218.570312 90.558594 218.519531 88.824219 218.3125 87.039062 C 218.058594 84.894531 217.648438 82.75 217.289062 80.609375 C 216.933594 78.363281 216.214844 77.1875 213.503906 76.167969 C 205.984375 73.207031 199.128906 68.816406 194.320312 61.980469 C 193.554688 60.855469 193.246094 59.476562 193.042969 57.945312 C 201.789062 60.550781 208.492188 65.859375 214.375 72.390625 C 214.476562 68.5625 208.132812 56.824219 203.683594 52.691406 C 203.53125 51.976562 203.070312 51.261719 202.660156 50.496094 Z M 202.660156 50.496094 " fill-opacity="1" fill-rule="nonzero"/></g><g clip-path="url(#d3fa6d7eb0)"><path fill="#000000" d="M 51.542969 163.1875 C 56.25 166.914062 60.957031 170.691406 65.664062 174.417969 C 65.917969 174.210938 66.175781 173.957031 66.429688 173.753906 C 62.132812 169.007812 60.90625 163.035156 59.472656 157.164062 C 58.757812 154.308594 58.550781 151.296875 58.246094 148.335938 C 58.195312 147.722656 58.65625 147.109375 58.910156 146.449219 C 59.421875 146.753906 60.136719 146.957031 60.445312 147.417969 C 65.5625 154.410156 69.296875 162.066406 70.625 170.691406 C 70.882812 172.375 70.421875 174.109375 70.214844 176.507812 C 76.203125 178.753906 82.648438 181.203125 89.09375 183.65625 C 89.246094 183.398438 89.398438 183.144531 89.503906 182.941406 C 80.394531 178.753906 75.179688 171.304688 70.984375 162.371094 C 77.019531 162.625 94.769531 179.011719 95.332031 184.726562 C 100.550781 185.441406 105.921875 186.15625 111.242188 186.921875 C 112.214844 187.074219 113.238281 187.074219 114.109375 187.429688 C 116.460938 188.402344 116.820312 191.105469 114.773438 192.585938 C 110.9375 195.394531 107.101562 198.199219 103.058594 200.753906 C 97.738281 204.121094 91.804688 205.601562 85.511719 205.398438 C 84.695312 205.347656 83.875 204.734375 83.054688 204.324219 C 83.566406 203.660156 83.976562 202.742188 84.695312 202.386719 C 89.246094 200.140625 93.800781 197.894531 98.453125 195.902344 C 101.730469 194.527344 105.207031 193.65625 108.53125 192.433594 C 109.761719 191.972656 110.9375 191.308594 112.113281 190.136719 C 111.089844 189.882812 110.066406 189.523438 108.992188 189.421875 C 99.121094 188.09375 89.296875 186.664062 79.832031 183.5 C 79.269531 183.296875 78.402344 183.5 77.941406 183.859375 C 68.9375 190.75 55.535156 190.800781 46.480469 183.910156 C 45.710938 183.296875 45.148438 182.480469 44.636719 181.359375 C 49.855469 180.234375 54.921875 181.867188 59.984375 181.816406 C 65.152344 181.765625 70.320312 181.816406 74.972656 181.816406 C 68.886719 178.449219 62.339844 174.875 55.789062 171.304688 C 47.402344 176.40625 27.550781 170.4375 25.148438 161.351562 C 30.058594 162.167969 34.507812 163.597656 39.0625 164.769531 C 43.613281 165.996094 48.167969 167.269531 52.925781 168.085938 C 48.167969 163.75 43.410156 159.460938 38.601562 155.074219 C 35.070312 157.113281 31.441406 156.347656 27.910156 155.074219 C 21.207031 152.675781 15.632812 148.589844 11.335938 142.925781 C 10.722656 142.109375 10.363281 141.039062 10.261719 139.710938 C 19.46875 142.976562 27.960938 147.316406 36.761719 152.570312 C 36.402344 151.550781 36.351562 151.09375 36.144531 150.785156 C 33.484375 146.753906 30.824219 142.722656 28.0625 138.742188 C 27.652344 138.128906 26.9375 137.363281 26.324219 137.363281 C 21.566406 137.3125 17.832031 134.863281 14.25 132.207031 C 9.851562 128.992188 6.269531 124.910156 3.558594 120.164062 C 3.148438 119.449219 2.742188 118.734375 2.585938 117.96875 C 2.433594 117.253906 2.640625 116.4375 2.742188 115.722656 C 3.40625 115.824219 4.222656 115.773438 4.789062 116.128906 C 6.167969 117 7.449219 117.917969 8.726562 118.9375 C 14.40625 123.683594 20.082031 128.480469 26.222656 133.636719 C 25.453125 131.289062 24.738281 129.453125 24.226562 127.5625 C 23.460938 125.011719 22.691406 122.460938 22.179688 119.855469 C 21.769531 117.816406 21.105469 116.539062 18.652344 116.183594 C 16.910156 115.925781 15.273438 114.394531 13.738281 113.222656 C 7.855469 108.679688 3.558594 102.910156 1 95.917969 C 0.488281 94.542969 0.335938 93.011719 0.03125 91.582031 C 0.285156 91.429688 0.488281 91.222656 0.746094 91.070312 C 1.71875 91.785156 2.84375 92.347656 3.609375 93.214844 C 8.675781 98.929688 13.6875 104.75 18.753906 110.515625 C 19.058594 110.875 19.417969 111.128906 19.726562 111.382812 C 19.316406 106.585938 18.90625 101.890625 18.394531 97.195312 C 18.34375 96.632812 17.933594 95.917969 17.472656 95.664062 C 11.539062 92.5 8.675781 87.039062 6.527344 81.117188 C 5.554688 78.464844 5.300781 75.503906 4.941406 72.644531 C 4.839844 71.878906 5.554688 71.011719 5.863281 70.144531 C 6.578125 70.707031 7.601562 71.113281 7.960938 71.878906 C 10.875 77.445312 13.6875 83.058594 16.503906 88.671875 C 16.960938 89.589844 17.269531 90.613281 18.140625 91.53125 C 18.34375 90.101562 18.445312 88.671875 18.753906 87.242188 C 19.265625 84.539062 19.929688 81.882812 20.390625 79.179688 C 20.542969 78.363281 20.390625 77.035156 19.878906 76.679688 C 15.070312 73.15625 13.382812 68 12.972656 62.539062 C 12.714844 59.070312 13.535156 55.546875 14.148438 52.078125 C 14.300781 51.210938 15.375 50.445312 16.042969 49.679688 C 16.554688 50.597656 17.421875 51.464844 17.578125 52.433594 C 18.804688 58.761719 19.878906 65.144531 21.003906 71.472656 C 21.105469 72.085938 21.257812 72.695312 21.566406 74.125 C 23.613281 69.480469 25.453125 65.550781 27.089844 61.519531 C 27.347656 60.957031 26.785156 59.988281 26.476562 59.273438 C 22.539062 50.445312 23.664062 42.125 29.292969 34.367188 C 29.855469 33.601562 30.621094 32.988281 31.746094 31.816406 C 33.027344 36.511719 33.28125 40.59375 32.515625 44.625 C 31.746094 48.554688 30.46875 52.382812 29.394531 56.363281 C 33.28125 51.820312 37.066406 47.382812 40.339844 43.554688 C 39.777344 41.714844 38.910156 40.390625 39.011719 39.0625 C 39.472656 31.609375 42.949219 25.742188 48.832031 21.199219 C 49.394531 20.789062 50.265625 20.789062 50.980469 20.636719 C 51.082031 21.402344 51.441406 22.269531 51.1875 22.882812 C 49.550781 27.070312 47.859375 31.253906 46.070312 35.386719 C 45.507812 36.664062 44.792969 37.886719 44.175781 39.164062 C 44.332031 39.265625 44.535156 39.367188 44.6875 39.472656 C 47.09375 36.410156 49.496094 33.296875 52.003906 30.285156 C 55.125 26.507812 58.910156 23.496094 63.464844 21.503906 C 64.945312 20.839844 66.585938 20.6875 68.171875 20.332031 C 68.324219 20.585938 68.476562 20.789062 68.578125 21.046875 C 68.171875 21.863281 67.914062 22.832031 67.300781 23.445312 C 63.257812 27.375 59.472656 31.660156 54.972656 34.929688 C 45.40625 41.972656 37.324219 50.289062 31.183594 60.398438 C 28.984375 64.019531 27.246094 67.898438 25.609375 71.929688 C 31.796875 66.164062 38.398438 61.316406 46.273438 58.558594 C 46.582031 58.8125 46.890625 59.019531 47.195312 59.273438 C 46.53125 60.703125 46.019531 62.234375 45.097656 63.457031 C 40.851562 68.511719 35.632812 72.289062 29.496094 74.332031 C 24.378906 76.015625 21.769531 78.921875 21.515625 84.230469 C 21.414062 86.9375 20.902344 89.640625 20.800781 92.449219 C 25.453125 85.046875 31.542969 79.28125 38.449219 74.382812 C 38.753906 74.585938 39.0625 74.839844 39.367188 75.042969 C 39.164062 76.117188 39.214844 77.289062 38.753906 78.210938 C 34.96875 85.863281 29.597656 91.988281 21.769531 95.714844 C 21.15625 96.019531 20.644531 97.246094 20.695312 97.960938 C 21.054688 102.351562 21.617188 106.738281 22.386719 111.179688 C 25.609375 103.523438 29.804688 96.734375 35.738281 90.613281 C 38.347656 96.785156 31.183594 110.773438 23.152344 115.875 C 24.738281 120.671875 26.324219 125.574219 27.960938 130.472656 C 28.164062 130.421875 28.371094 130.421875 28.625 130.371094 C 28.933594 122.050781 32.566406 114.90625 36.199219 107.761719 C 36.453125 107.710938 36.707031 107.710938 36.964844 107.660156 C 37.425781 108.78125 38.191406 109.851562 38.191406 110.976562 C 38.449219 120.0625 35.277344 127.921875 29.496094 135.421875 C 31.898438 139.199219 34.558594 143.386719 37.21875 147.519531 C 36.503906 138.535156 36.863281 129.910156 40.546875 121.796875 C 40.902344 121.746094 41.210938 121.746094 41.570312 121.695312 C 41.976562 122.765625 42.59375 123.785156 42.847656 124.859375 C 44.484375 132.15625 43.972656 139.457031 42.234375 146.652344 C 41.925781 148.03125 40.699219 149.152344 39.625 150.886719 C 42.488281 155.582031 47.554688 158.851562 51.699219 163.035156 C 51.59375 163.289062 51.542969 163.1875 51.542969 163.1875 Z M 51.542969 163.1875 " fill-opacity="1" fill-rule="nonzero"/></g><path fill="#000000" d="M 80.5 47.636719 C 81.929688 47.585938 83.464844 47.839844 84.746094 47.382812 C 88.632812 45.800781 92.417969 44.011719 96.152344 42.074219 C 101.78125 39.164062 107.714844 38.808594 113.800781 39.726562 C 113.953125 40.132812 114.058594 40.339844 114.058594 40.59375 C 114.519531 44.878906 117.023438 46.617188 121.167969 45.1875 C 122.140625 44.828125 123.164062 43.246094 123.214844 42.175781 C 123.265625 40.339844 124.082031 39.828125 125.617188 39.625 C 130.222656 38.960938 134.671875 39.316406 138.917969 41.207031 C 143.214844 43.09375 147.410156 45.1875 151.65625 47.074219 C 153.652344 47.941406 155.800781 48.300781 158.257812 46.972656 C 157.640625 46.464844 157.183594 46.054688 156.824219 45.644531 C 156.464844 45.238281 156.210938 44.777344 155.902344 44.371094 C 156.414062 44.011719 156.875 43.503906 157.386719 43.402344 C 159.175781 43.09375 161.53125 44.625 161.941406 46.257812 C 162.503906 48.453125 161.683594 50.75 159.484375 51.003906 C 156.261719 51.414062 152.9375 51.261719 149.660156 50.851562 C 146.644531 50.445312 143.726562 49.371094 140.761719 48.554688 C 135.234375 47.023438 129.710938 46.667969 123.980469 47.6875 C 120.808594 48.25 117.382812 48.148438 114.109375 47.738281 C 107.304688 46.871094 100.808594 47.433594 94.207031 49.269531 C 89.960938 50.496094 85.511719 51.054688 81.164062 51.769531 C 79.269531 52.078125 76.714844 50.597656 76.304688 49.015625 C 75.792969 47.125 75.742188 45.136719 77.890625 44.21875 C 78.914062 43.757812 80.292969 44.011719 81.46875 43.960938 C 81.214844 44.933594 81.011719 45.902344 80.753906 46.820312 C 80.652344 47.074219 80.550781 47.382812 80.5 47.636719 Z M 80.5 47.636719 " fill-opacity="1" fill-rule="nonzero"/><path fill="#000000" d="M 122.089844 53.507812 C 122.089844 58.710938 121.988281 63.613281 122.089844 68.511719 C 122.394531 83.464844 122.703125 98.472656 123.113281 113.425781 C 123.164062 115.210938 122.753906 116.128906 120.707031 115.976562 C 118.816406 115.824219 116.871094 115.925781 114.875 115.925781 C 114.773438 115.109375 114.671875 114.652344 114.671875 114.191406 C 115.183594 94.796875 115.695312 75.402344 116.101562 55.957031 C 116.15625 54.117188 116.667969 53.25 118.558594 53.457031 C 119.480469 53.609375 120.347656 53.507812 122.089844 53.507812 Z M 122.089844 53.507812 " fill-opacity="1" fill-rule="nonzero"/><path fill="#000000" d="M 134.316406 104.035156 C 149.457031 104.035156 164.546875 104.035156 179.84375 104.035156 C 179.484375 106.484375 178.105469 108.320312 176.261719 109.75 C 169.511719 115.007812 161.683594 116.386719 153.394531 115.671875 C 147.617188 115.160156 142.089844 113.578125 137.640625 109.597656 C 136.105469 108.21875 135.082031 106.332031 133.804688 104.648438 C 133.957031 104.441406 134.160156 104.238281 134.316406 104.035156 Z M 134.316406 104.035156 " fill-opacity="1" fill-rule="nonzero"/><path fill="#000000" d="M 102.957031 104.035156 C 101.832031 107.964844 99.324219 110.210938 96.355469 111.84375 C 87.507812 116.640625 78.195312 117 68.679688 114.039062 C 64.742188 112.8125 61.265625 110.824219 58.859375 107.402344 C 58.246094 106.484375 57.886719 105.363281 57.273438 104.085938 C 72.722656 104.035156 87.609375 104.035156 102.957031 104.035156 Z M 102.957031 104.035156 " fill-opacity="1" fill-rule="nonzero"/><path fill="#000000" d="M 158.664062 58.761719 C 164.601562 72.492188 170.429688 86.070312 176.46875 100.054688 C 176.878906 100.105469 177.898438 100.257812 178.972656 100.460938 C 178.972656 101.226562 178.972656 101.890625 178.972656 102.707031 C 168.078125 102.707031 157.335938 102.707031 146.59375 102.707031 C 143.214844 102.707031 139.789062 102.707031 136.414062 102.808594 C 134.777344 102.859375 134.109375 102.351562 134.722656 100.460938 C 137.589844 101.226562 137.945312 98.980469 138.765625 97.09375 C 143.675781 85.863281 148.585938 74.636719 153.550781 63.40625 C 154.214844 61.925781 154.980469 60.550781 155.75 59.070312 C 154.011719 56.773438 153.855469 55.039062 155.441406 53.660156 C 156.363281 52.84375 157.386719 52.230469 158.5625 53.457031 C 160.40625 55.34375 160.40625 56.671875 158.664062 58.761719 Z M 174.421875 99.953125 C 168.691406 86.679688 163.066406 73.71875 157.488281 60.753906 C 157.285156 60.804688 157.027344 60.804688 156.824219 60.855469 C 151.09375 73.769531 145.363281 86.679688 139.429688 99.953125 C 151.246094 99.953125 162.605469 99.953125 174.421875 99.953125 Z M 174.421875 99.953125 " fill-opacity="1" fill-rule="nonzero"/><path fill="#000000" d="M 81.316406 58.660156 C 87.457031 72.542969 93.441406 86.171875 99.527344 99.953125 C 100.859375 100.15625 103.058594 99.695312 102.445312 102.554688 C 87.710938 102.554688 72.980469 102.554688 57.53125 102.554688 C 58.296875 101.484375 58.65625 100.460938 59.0625 100.460938 C 61.007812 100.359375 61.109375 98.929688 61.722656 97.605469 C 67.09375 85.203125 72.621094 72.800781 78.042969 60.398438 C 78.351562 59.734375 78.402344 58.761719 78.144531 58.101562 C 77.480469 56.414062 77.789062 54.066406 79.375 53.507812 C 80.191406 53.199219 81.625 53.609375 82.289062 54.222656 C 83.722656 55.597656 83.210938 57.128906 81.777344 58.355469 C 81.523438 58.558594 81.214844 58.710938 81.316406 58.660156 Z M 79.988281 60.191406 C 74.054688 73.820312 68.425781 86.734375 62.644531 99.953125 C 74.566406 99.953125 85.820312 99.953125 97.378906 99.953125 C 91.597656 86.734375 85.921875 73.769531 79.988281 60.191406 Z M 79.988281 60.191406 " fill-opacity="1" fill-rule="nonzero"/><path fill="#000000" d="M 151.914062 159.054688 C 149.765625 159.054688 147.769531 159.054688 145.773438 159.054688 C 126.386719 159.054688 106.996094 159.003906 87.660156 159.054688 C 85.871094 159.054688 84.746094 158.851562 84.949219 156.605469 C 85.152344 154.664062 86.382812 154.765625 87.710938 154.714844 C 96.664062 154.664062 105.617188 154.613281 114.621094 154.5625 C 126.027344 154.5625 137.382812 154.613281 148.792969 154.613281 C 152.015625 154.664062 152.527344 155.328125 151.914062 159.054688 Z M 151.914062 159.054688 " fill-opacity="1" fill-rule="nonzero"/><path fill="#000000" d="M 109.863281 138.535156 C 110.886719 136.953125 111.910156 135.730469 112.574219 134.300781 C 114.109375 130.933594 113.851562 127.5625 112.0625 124.347656 C 110.886719 122.253906 111.242188 121.488281 113.546875 121.4375 C 117.074219 121.335938 120.65625 121.386719 124.238281 121.386719 C 126.179688 121.386719 126.488281 122.304688 125.566406 123.835938 C 122.445312 129.042969 122.753906 133.941406 127.410156 138.535156 C 121.371094 138.535156 115.746094 138.535156 109.863281 138.535156 Z M 109.863281 138.535156 " fill-opacity="1" fill-rule="nonzero"/><path fill="#000000" d="M 172.527344 194.21875 C 169.714844 196.667969 166.695312 197.535156 163.628906 198.046875 C 155.699219 199.375 148.640625 197.230469 142.296875 192.382812 C 142.191406 192.28125 141.988281 192.179688 141.9375 192.074219 C 141.375 191.003906 140.863281 189.933594 140.300781 188.859375 C 141.578125 188.605469 142.910156 187.941406 144.085938 188.144531 C 153.039062 189.832031 161.941406 191.71875 170.839844 193.503906 C 171.300781 193.554688 171.710938 193.8125 172.527344 194.21875 Z M 172.527344 194.21875 " fill-opacity="1" fill-rule="nonzero"/><path fill="#000000" d="M 63.003906 194.066406 C 64.332031 193.65625 65.050781 193.402344 65.765625 193.25 C 74.257812 191.464844 82.75 189.625 91.292969 187.941406 C 92.367188 187.738281 93.644531 188.453125 94.824219 188.757812 C 94.464844 189.777344 94.363281 191.054688 93.644531 191.71875 C 88.632812 196.566406 82.390625 198.660156 75.535156 198.300781 C 72.261719 198.148438 68.988281 196.875 65.765625 196.007812 C 64.945312 195.75 64.28125 194.984375 63.003906 194.066406 Z M 63.003906 194.066406 " fill-opacity="1" fill-rule="nonzero"/><path fill="#000000" d="M 51.542969 163.1875 C 51.542969 163.1875 51.59375 163.238281 51.59375 163.238281 C 46.683594 154.921875 46.582031 145.988281 48.015625 136.800781 C 48.167969 135.832031 48.527344 134.863281 48.882812 133.738281 C 54.664062 139.8125 56.710938 155.890625 53.691406 164.054688 C 52.976562 163.800781 52.261719 163.496094 51.542969 163.1875 Z M 51.542969 163.1875 " fill-opacity="1" fill-rule="nonzero"/><path fill="#000000" d="M 61.570312 37.886719 C 61.210938 44.675781 44.945312 55.496094 36.042969 54.730469 C 37.117188 53.148438 37.886719 51.71875 38.960938 50.546875 C 42.4375 46.617188 46.734375 43.757812 51.441406 41.5625 C 53.796875 40.492188 56.148438 39.472656 58.550781 38.5 C 59.472656 38.144531 60.496094 38.09375 61.570312 37.886719 Z M 61.570312 37.886719 " fill-opacity="1" fill-rule="nonzero"/><path fill="#000000" d="M 202.660156 50.496094 C 203.070312 51.261719 203.53125 52.027344 203.9375 52.792969 C 204.65625 54.375 204.246094 55.242188 202.457031 54.832031 C 193.402344 52.691406 185.574219 48.503906 179.539062 41.257812 C 178.820312 40.390625 178.410156 39.265625 178.15625 38.042969 C 187.3125 40.339844 195.445312 44.523438 202.660156 50.496094 Z M 202.660156 50.496094 " fill-opacity="1" fill-rule="nonzero"/><path fill="#000000" d="M 147.617188 153.441406 C 145.570312 153.441406 143.523438 153.441406 141.476562 153.441406 C 125.15625 153.492188 108.890625 153.542969 92.570312 153.542969 C 91.597656 153.542969 90.066406 154.207031 90.066406 152.265625 C 90.066406 150.480469 91.546875 150.886719 92.570312 150.886719 C 108.53125 150.9375 124.542969 151.039062 140.503906 151.09375 C 142.191406 151.09375 143.933594 150.886719 145.570312 151.144531 C 146.4375 151.246094 147.15625 152.164062 147.972656 152.675781 C 147.871094 152.980469 147.769531 153.183594 147.617188 153.441406 Z M 147.617188 153.441406 " fill-opacity="1" fill-rule="nonzero"/><path fill="#000000" d="M 95.949219 149.816406 C 95.640625 147.671875 96.355469 147.007812 98.453125 147.007812 C 111.910156 147.007812 125.414062 146.90625 138.867188 146.753906 C 141.222656 146.703125 140.453125 148.4375 141.066406 149.816406 C 125.824219 149.816406 110.886719 149.816406 95.949219 149.816406 Z M 95.949219 149.816406 " fill-opacity="1" fill-rule="nonzero"/><path fill="#000000" d="M 99.785156 145.683594 C 101.78125 143.640625 103.671875 142.925781 105.921875 142.925781 C 113.597656 142.976562 121.269531 143.027344 128.945312 143.027344 C 130.222656 143.027344 131.605469 142.773438 132.78125 143.078125 C 134.058594 143.386719 135.183594 144.253906 136.414062 144.867188 C 136.308594 145.121094 136.207031 145.375 136.105469 145.632812 C 124.238281 145.683594 112.367188 145.683594 99.785156 145.683594 Z M 99.785156 145.683594 " fill-opacity="1" fill-rule="nonzero"/><path fill="#000000" d="M 118.867188 33.398438 C 122.34375 33.398438 122.90625 34.214844 122.242188 37.582031 C 122.039062 38.757812 122.242188 39.980469 122.242188 41.207031 C 122.242188 43.707031 120.964844 44.726562 118.304688 44.472656 C 115.796875 44.269531 114.824219 43.09375 115.132812 40.644531 C 115.234375 39.980469 115.234375 39.214844 115.027344 38.550781 C 113.800781 34.722656 114.773438 33.398438 118.867188 33.398438 Z M 118.867188 33.398438 " fill-opacity="1" fill-rule="nonzero"/><path fill="#000000" d="M 129.8125 141.804688 C 122.191406 141.804688 114.570312 141.804688 106.945312 141.804688 C 106.792969 141.546875 106.691406 141.292969 106.539062 141.039062 C 107.304688 140.578125 108.070312 139.660156 108.839844 139.660156 C 115.183594 139.558594 121.578125 139.609375 127.921875 139.761719 C 128.738281 139.761719 129.507812 140.628906 130.273438 141.089844 C 130.121094 141.292969 129.964844 141.546875 129.8125 141.804688 Z M 129.8125 141.804688 " fill-opacity="1" fill-rule="nonzero"/><g clip-path="url(#201befe57f)"><path fill="#000000" d="M 120.859375 31.867188 C 118.96875 31.96875 117.585938 32.019531 115.898438 32.121094 C 116.667969 27.527344 117.382812 23.242188 118.148438 18.953125 C 118.355469 18.953125 118.609375 19.003906 118.816406 19.003906 C 119.480469 23.136719 120.144531 27.324219 120.859375 31.867188 Z M 120.859375 31.867188 " fill-opacity="1" fill-rule="nonzero"/></g><path fill="#000000" d="M 124.339844 120.113281 C 120.554688 120.113281 116.972656 120.113281 113.289062 120.113281 C 113.136719 117.96875 113.851562 116.945312 116 117.050781 C 117.84375 117.152344 119.734375 117.152344 121.578125 117 C 123.828125 116.792969 124.75 117.660156 124.339844 120.113281 Z M 124.339844 120.113281 " fill-opacity="1" fill-rule="nonzero"/><path fill="#000000" d="M 122.496094 51.3125 C 120.144531 51.3125 117.945312 51.3125 115.746094 51.3125 C 114.976562 48.605469 115.695312 48.148438 122.496094 48.863281 C 122.496094 49.628906 122.496094 50.394531 122.496094 51.3125 Z M 122.496094 51.3125 " fill-opacity="1" fill-rule="nonzero"/><g fill="#000000" fill-opacity="1"><g transform="translate(708.813781, 163.417053)"><g><path d="M 4.480469 -129.898438 L 63.605469 -129.898438 L 63.605469 -117.535156 L 49.269531 -117.535156 L 49.269531 -122.011719 L 53.75 -122.011719 L 53.75 -3.402344 L 49.269531 -3.402344 L 49.269531 -7.882812 L 63.605469 -7.882812 L 63.605469 4.480469 L 0 4.480469 L 0 -7.882812 L 14.332031 -7.882812 L 14.332031 -3.402344 L 9.855469 -3.402344 L 9.855469 -122.011719 L 14.332031 -122.011719 L 14.332031 -117.535156 L 0 -117.535156 L 0 -129.898438 Z M 4.480469 -120.9375 L 4.480469 -125.417969 L 8.957031 -125.417969 L 8.957031 -122.011719 L 4.480469 -122.011719 L 4.480469 -126.492188 L 18.8125 -126.492188 L 18.8125 1.074219 L 4.480469 1.074219 L 4.480469 -3.402344 L 8.957031 -3.402344 L 8.957031 0 L 4.480469 0 L 4.480469 -4.480469 L 59.125 -4.480469 L 59.125 0 L 54.644531 0 L 54.644531 -3.402344 L 59.125 -3.402344 L 59.125 1.074219 L 44.792969 1.074219 L 44.792969 -126.492188 L 59.125 -126.492188 L 59.125 -122.011719 L 54.644531 -122.011719 L 54.644531 -125.417969 L 59.125 -125.417969 L 59.125 -120.9375 Z M 4.480469 -120.9375 "/></g></g></g><g fill="#000000" fill-opacity="1"><g transform="translate(772.414227, 163.417053)"><g><path d="M 73.15625 -1.96875 L 60.078125 -40.671875 L 64.320312 -42.105469 L 64.320312 -37.625 L 28.847656 -37.625 L 28.847656 -42.105469 L 33.066406 -40.601562 L 19.269531 -1.898438 L 15.050781 -3.402344 L 15.050781 -7.882812 L 32.96875 -7.882812 L 32.96875 4.480469 L -3.402344 4.480469 L -3.402344 -7.882812 L 9.496094 -7.882812 L 9.496094 -3.402344 L 5.296875 -4.960938 L 52.066406 -130.972656 L 73.003906 -130.972656 L 119.230469 -4.945312 L 115.027344 -3.402344 L 115.027344 -7.882812 L 127.746094 -7.882812 L 127.746094 4.480469 L 60.199219 4.480469 L 60.199219 -7.882812 L 77.398438 -7.882812 L 77.398438 -3.402344 Z M 83.640625 1.074219 L 64.679688 1.074219 L 64.679688 -3.402344 L 69.160156 -3.402344 L 69.160156 0 L 64.679688 0 L 64.679688 -4.480469 L 123.265625 -4.480469 L 123.265625 0 L 118.789062 0 L 118.789062 -3.402344 L 123.265625 -3.402344 L 123.265625 1.074219 L 111.898438 1.074219 L 65.671875 -124.949219 L 69.875 -126.492188 L 69.875 -122.011719 L 55.183594 -122.011719 L 55.183594 -126.492188 L 59.382812 -124.933594 L 12.609375 1.074219 L 1.074219 1.074219 L 1.074219 -3.402344 L 5.554688 -3.402344 L 5.554688 0 L 1.074219 0 L 1.074219 -4.480469 L 28.488281 -4.480469 L 28.488281 0 L 24.007812 0 L 24.007812 -3.402344 L 28.488281 -3.402344 L 28.488281 1.074219 L 8.699219 1.074219 L 25.6875 -46.582031 L 67.535156 -46.582031 L 81.644531 -4.839844 Z M 51.515625 -91.476562 L 34.675781 -44.535156 L 30.457031 -46.046875 L 30.457031 -50.523438 L 62.886719 -50.523438 L 62.886719 -46.046875 L 58.636719 -44.632812 L 43.050781 -91.578125 L 47.300781 -92.988281 Z M 47.464844 -106.707031 L 69.09375 -41.566406 L 24.09375 -41.566406 L 43.085938 -94.5 Z M 47.464844 -106.707031 "/></g></g></g><g fill="#ffffff" fill-opacity="1"><g transform="translate(708.813781, 163.417053)"><g><path d="M 4.484375 -125.421875 L 59.125 -125.421875 L 59.125 -122.015625 L 49.265625 -122.015625 L 49.265625 -3.40625 L 59.125 -3.40625 L 59.125 0 L 4.484375 0 L 4.484375 -3.40625 L 14.328125 -3.40625 L 14.328125 -122.015625 L 4.484375 -122.015625 Z M 4.484375 -125.421875 "/></g></g></g><g fill="#ffffff" fill-opacity="1"><g transform="translate(772.414227, 163.417053)"><g><path d="M 77.40625 -3.40625 L 64.328125 -42.109375 L 28.84375 -42.109375 L 15.046875 -3.40625 L 28.484375 -3.40625 L 28.484375 0 L 1.078125 0 L 1.078125 -3.40625 L 9.5 -3.40625 L 55.1875 -126.5 L 69.875 -126.5 L 115.03125 -3.40625 L 123.265625 -3.40625 L 123.265625 0 L 64.6875 0 L 64.6875 -3.40625 Z M 47.296875 -92.984375 L 30.453125 -46.046875 L 62.890625 -46.046875 Z M 47.296875 -92.984375 "/></g></g></g></svg>